<?xml version="1.0" encoding="utf-8"?>
<!-- Generator: Adobe Illustrator 23.0.3, SVG Export Plug-In . SVG Version: 6.00 Build 0)  -->
<svg version="1.1" id="Layer_1" xmlns="http://www.w3.org/2000/svg" xmlns:xlink="http://www.w3.org/1999/xlink" x="0px" y="0px"
	 viewBox="0 0 216 180" style="enable-background:new 0 0 216 180;" xml:space="preserve">
<style type="text/css">
	.st0{fill:#009999;}
	.st1{fill:#333333;}
	.st2{font-family:'PlayfairDisplay-Regular';}
	.st3{font-size:24px;}
	.st4{fill-rule:evenodd;clip-rule:evenodd;fill:none;}
</style>
<g>
	<path class="st0" d="M85.8,27.7c-4.4-6-12.9,0-12.9,0c-5.5,2.9-10.4,7.6-10.4,7.6c-4.5-4.5-10.2-6.7-15.4-6.7c0,0-25,0-25,29.7
		c0,15.9,8.9,22.6,16.3,25.4c-0.9,0.4-1.8,0.9-2.5,1.4l-0.2,0.2l-0.2,0.2c-0.8,0.7-7.5,7.5-6.2,14.3c0.3,1.8,2,2.9,3.8,2.6
		c1.8-0.3,2.9-2,2.6-3.8c-0.5-2.5,2.5-6.5,4.2-8.2c1.8-1.1,10.2-5.7,16.2,2.4c2.3,3.2,2,6.6,1.4,8.9c-1,3.7-3.4,6.3-4.7,6.9
		c-1.4,0.6-2.2,2.1-2,3.6c0.2,1.5,1.4,2.7,2.9,2.8c1.3,0.2,7.9,1.2,10.6,5.9c1.9,3.4,2.4,7.4,1.5,12.2c-0.7,3.8-2,7.8-7.1,11.3
		c-5.6,3.9-15.9,5.9-23.8,2c-5.9-2.9-9.2-8.4-9.7-16.5c0.1-1.4,1.2-10.7,8-11.9c1.6-0.3,3.8-0.4,4.9,0.7c1.2,1.1,1.4,3.5,1.3,4.5
		c-0.4,1.2-1.5,3.2-2.7,3.5c-0.9,0.3-2-0.4-2.9-1.1c-1.4-1.1-3.5-0.8-4.6,0.6c-1.1,1.4-0.8,3.5,0.6,4.6c3.7,2.8,6.8,2.7,8.8,2.1
		c4.9-1.6,6.8-7.5,7-8.1l0.1-0.3l0-0.3c0.1-0.7,0.7-6.6-3.3-10.3c-2.5-2.4-6.1-3.2-10.6-2.4c-12.3,2.2-13.3,17.5-13.3,18.1l0,0.2
		l0,0.2c0.8,13.3,7.7,19.4,13.4,22.2c3.9,1.9,8.2,2.7,12.4,2.7c6.8,0,13.4-2.1,18-5.3c7.1-4.9,8.9-10.8,9.8-15.5
		c1.1-6.3,0.4-11.9-2.2-16.5c-2.3-4.1-6-6.4-9.3-7.7c1.4-1.9,2.5-4.2,3.2-6.6c1.4-5.2,0.6-10.4-2.4-14.5c-1.8-2.4-3.7-4.1-5.7-5.3
		c6.9-3.1,15.2-10.5,15.2-26c0-9.5-2.9-16.5-7.1-21.2l0,0l0-0.1c0,0.1,10.4-9.3,15.8-9.9s4.4,4.1,4.4,4.1c-8.3,1-8.3,7.3-8.3,7.3
		c-0.6,2.4,0.7,4.2,0.7,4.2c4.5,5,8.9-0.5,8.9-0.5S90.1,33.7,85.8,27.7z M56.6,70.8c0,5.8-4.7,10.5-10.5,10.5s-10.5-4.7-10.5-10.5
		v-25c0-5.8,4.7-10.5,10.5-10.5s10.5,4.7,10.5,10.5V70.8z"/>
	<text transform="matrix(1 0 0 1 76.0047 73.356)"><tspan x="0" y="0" class="st1 st2 st3">eneological</tspan><tspan x="0" y="24" class="st1 st2 st3">raphics</tspan><tspan x="0" y="48" class="st1 st2 st3">eneration</tspan></text>
</g>
<path class="st4" d="M-436.4-103.4h1081v385.9h-1081V-103.4z"/>
</svg>
